<?xml version="1.0" encoding="UTF-8"?>
<svg version="1.1" xmlns="http://www.w3.org/2000/svg" width="500" height="500">
<path d="M0 0 C0 4.29 0 8.58 0 13 C4.29 13 8.58 13 13 13 C13 42.7 13 72.4 13 103 C6.565 102.505 6.565 102.505 0 102 C0 118.5 0 135 0 152 C3.63 152.66 7.26 153.32 11 154 C23.81920295 157.91382745 34.94757907 164.19152413 45 173 C45.68835938 173.59296875 46.37671875 174.1859375 47.0859375 174.796875 C62.05644159 188.64311199 69.11967981 208.52609495 73 228 C69.12989083 226.44305953 66.97795934 223.98514453 64.1875 220.9375 C47.08085626 203.2335369 23.45312531 198.69062506 0 194 C0 228.65 0 263.3 0 299 C14.49898122 291.75050939 23.14789239 285.14279877 28.4375 269.5625 C34.56792194 249.35684921 31.3989897 229.67046165 21.7421875 211.37109375 C20 208 20 208 19 205 C31.80885958 207.05856672 43.88915735 212.9752234 54 221 C54.63164062 221.45761719 55.26328125 221.91523438 55.9140625 222.38671875 C65.35281168 229.6424973 70.42932543 241.27751667 72.75 252.6875 C73.28081629 259.7208158 72.89814782 265.84390355 71.3125 272.6875 C71.13315918 273.47133057 70.95381836 274.25516113 70.76904297 275.06274414 C66.92419335 291.19167415 59.96508397 304.5962348 49 317 C48.45859375 317.63679688 47.9171875 318.27359375 47.359375 318.9296875 C34.61523811 332.89674662 13.09899968 342.35208797 -5.6328125 343.30078125 C-16.33473743 343.81170064 -16.33473743 343.81170064 -24.8125 350.125 C-25.65296875 351.10984375 -26.4934375 352.0946875 -27.359375 353.109375 C-31.79050816 357.96002373 -37.29245695 360.85869482 -43 364 C-44.19496094 364.70576172 -44.19496094 364.70576172 -45.4140625 365.42578125 C-58.35194967 372.60608633 -73.4278153 375 -88 375 C-88 364.77 -88 354.54 -88 344 C-89.32 344 -90.64 344 -92 344 C-92 312.32 -92 280.64 -92 248 C-90.68 248 -89.36 248 -88 248 C-88.495 219.29 -88.495 219.29 -89 190 C-92.63 188.68 -96.26 187.36 -100 186 C-120.68590615 174.90024548 -130.97704833 156.51456012 -137.76342773 134.63037109 C-141 123.72313245 -141 123.72313245 -141 121 C-137.13075988 122.55302069 -135.0216331 125.00251377 -132.25 128.0625 C-120.44599985 140.38520083 -104.20956682 145.98827821 -88 150 C-88.00222061 149.05754425 -88.00444122 148.1150885 -88.00672913 147.14407349 C-88.02706798 138.22920732 -88.04202368 129.31434591 -88.05181217 120.39946175 C-88.05701381 115.81707918 -88.06406168 111.23471547 -88.07543945 106.65234375 C-88.08636546 102.22382295 -88.09229728 97.7953202 -88.09487724 93.36678696 C-88.09671408 91.68365063 -88.10030071 90.0005152 -88.10573006 88.31738663 C-88.13203274 79.8195696 -88.07349371 71.44679828 -87 63 C-98.37023719 75.75272261 -102.56116003 89.38086663 -102.24609375 106.3203125 C-101.48271729 117.73460812 -98.55322471 127.06493391 -93 137 C-91.99160554 138.9957807 -90.9893854 140.99472781 -90 143 C-96.62500341 141.73588846 -102.35690197 139.83939249 -108.4375 136.9375 C-109.26789795 136.54191895 -110.0982959 136.14633789 -110.95385742 135.73876953 C-117.72762377 132.38142409 -122.85903592 128.59701735 -128 123 C-128.86625 122.14148438 -128.86625 122.14148438 -129.75 121.265625 C-138.74299795 111.82297715 -140.47347188 100.28478579 -140.28125 87.81640625 C-139.44077815 66.67433683 -127.85755927 47.01661736 -112.73046875 32.87890625 C-97.55391828 19.96751257 -80.05257005 14.31140621 -60.4375 13.1875 C-51.91151377 12.68807571 -45.66089589 11.03065417 -38.14697266 7.04174805 C-26.13775613 0.73958162 -13.3880207 -0.56970301 0 0 Z " fill="#497B73" transform="translate(278,117)"/>
<path d="M0 0 C12.80885958 2.05856672 24.88915735 7.9752234 35 16 C35.63164062 16.45761719 36.26328125 16.91523438 36.9140625 17.38671875 C46.35281168 24.6424973 51.42932543 36.27751667 53.75 47.6875 C54.28081629 54.7208158 53.89814782 60.84390355 52.3125 67.6875 C52.13315918 68.47133057 51.95381836 69.25516113 51.76904297 70.06274414 C47.92419335 86.19167415 40.96508397 99.5962348 30 112 C29.45859375 112.63679688 28.9171875 113.27359375 28.359375 113.9296875 C15.61523811 127.89674662 -5.90100032 137.35208797 -24.6328125 138.30078125 C-35.33473743 138.81170064 -35.33473743 138.81170064 -43.8125 145.125 C-44.65296875 146.10984375 -45.4934375 147.0946875 -46.359375 148.109375 C-50.79050816 152.96002373 -56.29245695 155.85869482 -62 159 C-62.79664063 159.47050781 -63.59328125 159.94101562 -64.4140625 160.42578125 C-77.35194967 167.60608633 -92.4278153 170 -107 170 C-107 159.77 -107 149.54 -107 139 C-108.32 139 -109.64 139 -111 139 C-111 107.32 -111 75.64 -111 43 C-94.703 45.037125 -85.65832537 46.46785795 -75.4296875 58.91015625 C-67.37055727 70.66104374 -68.64914433 84.40299342 -69 98 C-63.80749626 97.93042322 -58.61574499 97.84213214 -53.42382812 97.73754883 C-51.66284639 97.7045867 -49.90176627 97.67646852 -48.140625 97.65356445 C-31.46537416 97.43091196 -18.01193158 95.20010911 -3.75 85.875 C9.94347116 71.55909833 12.44089454 55.61654496 12.203125 36.6796875 C11.89541004 25.1328712 8.04392341 16.41773382 2.7421875 6.37109375 C1 3 1 3 0 0 Z " fill="#26445B" transform="translate(297,322)"/>
<path d="M0 0 C18.81548811 0.16934831 18.81548811 0.16934831 26.8828125 0.2578125 C32.37105779 0.31794231 37.85927016 0.37608218 43.34765625 0.421875 C47.77628969 0.45895615 52.20473876 0.50537565 56.63321304 0.55806351 C58.31631333 0.57648691 59.99945296 0.59163851 61.68261337 0.60334396 C70.27800057 0.66521814 78.63713809 0.73414199 87 3 C87.90541928 5.71625783 88.12721444 7.28883802 88.13371277 10.07881165 C88.14011024 11.32149307 88.14011024 11.32149307 88.14663696 12.58927917 C88.14595718 13.9475457 88.14595718 13.9475457 88.14526367 15.33325195 C88.14862228 16.28965576 88.1519809 17.24605957 88.15544128 18.23144531 C88.16495782 21.40040376 88.16689485 24.56930939 88.16796875 27.73828125 C88.17118117 29.93922447 88.17454523 32.14016747 88.17805481 34.34111023 C88.18404807 38.95877579 88.18589454 43.57642262 88.18530273 48.1940918 C88.18520118 54.10899637 88.19884594 60.02378072 88.21607494 65.93865681 C88.22719864 70.48628795 88.22922182 75.03389008 88.22869301 79.58153343 C88.22987285 81.76199953 88.23429486 83.94246637 88.24202538 86.12291908 C88.25183124 89.1748862 88.2489446 92.22659307 88.24291992 95.27856445 C88.24853943 96.17800278 88.25415894 97.0774411 88.25994873 98.00413513 C88.23621543 102.73956921 87.83247139 106.54839005 86 111 C76.17245544 113.58405416 66.45481541 113.22398651 56.375 113.125 C54.58984877 113.11495103 52.80469206 113.10582857 51.01953125 113.09765625 C46.67955069 113.0757925 42.33983668 113.04136815 38 113 C37.9906543 112.4016333 37.98130859 111.8032666 37.97167969 111.18676758 C37.68392638 88.17702315 37.68392638 88.17702315 26 69 C18.32640179 61.74119088 10.28643113 60.28580389 0 59 C0 39.53 0 20.06 0 0 Z " fill="#487B72" transform="translate(190,307)"/>
<path d="M0 0 C3.86924012 1.55302069 5.9783669 4.00251377 8.75 7.0625 C18.63477363 17.38163815 31.57217205 22.76768461 45 27 C45.88390411 27.34446671 46.76780823 27.68893341 47.67849731 28.0438385 C51.57986106 29.16692469 55.20847696 29.28496384 59.22998047 29.27124023 C60.03420944 29.27646698 60.83843842 29.28169373 61.66703796 29.28707886 C63.40700211 29.29728657 65.14699651 29.30309361 66.88698959 29.30496025 C69.65601311 29.30864542 72.42468525 29.32543567 75.19363403 29.34571838 C83.06456909 29.4008897 90.93555726 29.43161491 98.80664062 29.45629883 C103.6312599 29.47233564 108.45563389 29.50272922 113.28012466 29.54106331 C115.10340865 29.55258331 116.92673685 29.5586425 118.75005722 29.55874443 C144.00653296 29.56066658 166.54146044 34.94937336 186 52 C186.68835938 52.59296875 187.37671875 53.1859375 188.0859375 53.796875 C203.05644159 67.64311199 210.11967981 87.52609495 214 107 C210.12989083 105.44305953 207.97795934 102.98514453 205.1875 99.9375 C188.18692174 82.34330591 164.24994386 77.02565857 141 73 C140.67 73.66 140.34 74.32 140 75 C140 74.01 140 73.02 140 72 C131.91996051 71.008517 123.91694519 70.8383207 115.79018021 70.80076981 C113.42525673 70.78880288 111.06050178 70.76931025 108.69564819 70.74765015 C101.97879751 70.68661251 95.26197162 70.6320944 88.54492188 70.59863281 C84.41592129 70.57752583 80.28724289 70.54210881 76.15842819 70.49787521 C74.59979446 70.48385513 73.04110392 70.47502496 71.48241043 70.47182083 C53.13040568 70.43008436 37.78594193 66.45304624 24.19921875 53.34765625 C12.64917583 41.01803672 0 17.3449488 0 0 Z " fill="#26445B" transform="translate(137,238)"/>
<path d="M0 0 C1.18868179 0.0028299 2.37736359 0.00565979 3.60206604 0.00857544 C7.38195043 0.01973044 11.16159401 0.04482684 14.94140625 0.0703125 C17.51106428 0.08034833 20.08072603 0.08947313 22.65039062 0.09765625 C28.93497738 0.11965449 35.2194246 0.15308561 41.50390625 0.1953125 C41.57364642 9.16670322 41.6268388 18.13799953 41.65934277 27.10960293 C41.67494893 31.27621017 41.69609397 35.44263092 41.73022461 39.60913086 C41.76299947 43.63566464 41.78079717 47.66201988 41.78853798 51.68867683 C41.79404915 53.21915558 41.8048106 54.74962538 41.82109642 56.28002739 C41.95158415 69.05904234 40.71544023 78.66869587 31.50390625 88.1953125 C22.746805 95.63792287 11.54514975 96.65333095 0.4921875 96.48828125 C-0.60205032 96.48403641 -1.69628815 96.47979156 -2.82368469 96.47541809 C-6.27725097 96.45878731 -9.73020745 96.4211647 -13.18359375 96.3828125 C-15.54230921 96.36774549 -17.90103393 96.35406064 -20.25976562 96.34179688 C-26.00541215 96.30893515 -31.75070936 96.25889432 -37.49609375 96.1953125 C-37.58912519 86.98045374 -37.66002572 77.76575878 -37.70334244 68.55053139 C-37.72414134 64.27065973 -37.75231645 59.99111141 -37.79785156 55.71142578 C-37.84158642 51.57464839 -37.86528862 47.43818032 -37.87560272 43.30118942 C-37.88294487 41.72964998 -37.89728141 40.15812583 -37.91901398 38.58671951 C-38.06918991 27.26910648 -37.30538373 17.38820028 -29.1953125 8.7265625 C-20.34194663 0.74835694 -11.50146507 -0.1036847 0 0 Z " fill="#497B72" transform="translate(232.49609375,13.8046875)"/>
<path d="M0 0 C1.134375 0.00902344 2.26875 0.01804688 3.4375 0.02734375 C4.283125 0.03894531 5.12875 0.05054688 6 0.0625 C5.67 1.0525 5.34 2.0425 5 3.0625 C4.34 3.0625 3.68 3.0625 3 3.0625 C3 3.7225 3 4.3825 3 5.0625 C1.61592208 5.9967526 0.22852427 6.92633237 -1.171875 7.8359375 C-13.54521759 16.13771009 -20.30482947 28.50048384 -25.45507812 42.13500977 C-27.51014911 47.38088067 -30.09905805 50.88872733 -34.078125 54.9140625 C-43.27241169 65.19222852 -45.6394448 80.16044984 -45.28125 93.48828125 C-44.386092 104.86424753 -41.54676098 114.13899793 -36 124.0625 C-34.99160554 126.0582807 -33.9893854 128.05722781 -33 130.0625 C-39.62500341 128.79838846 -45.35690197 126.90189249 -51.4375 124 C-52.26789795 123.60441895 -53.0982959 123.20883789 -53.95385742 122.80126953 C-60.72762377 119.44392409 -65.85903592 115.65951735 -71 110.0625 C-71.86625 109.20398438 -71.86625 109.20398438 -72.75 108.328125 C-81.74299795 98.88547715 -83.47347188 87.34728579 -83.28125 74.87890625 C-82.44077815 53.73683683 -70.85755927 34.07911736 -55.73046875 19.94140625 C-40.2374246 6.76075675 -20.29431809 -0.21139915 0 0 Z " fill="#26445B" transform="translate(221,129.9375)"/>
<path d="M0 0 C21.78 0 43.56 0 66 0 C64.03881086 7.84475656 57.22631631 12.05972656 50.625 16.1875 C48.4259186 17.47427677 46.21815038 18.7463803 44 20 C43.19949219 20.474375 42.39898437 20.94875 41.57421875 21.4375 C28.7507098 28.52475883 13.50784621 31.3022468 -1 31 C-1.02473868 27.06731133 -1.04287835 23.13465287 -1.05493164 19.2019043 C-1.06242729 17.20685232 -1.07513345 15.21182214 -1.08789062 13.21679688 C-1.09111328 11.96318359 -1.09433594 10.70957031 -1.09765625 9.41796875 C-1.10289307 8.26063232 -1.10812988 7.1032959 -1.11352539 5.91088867 C-1 3 -1 3 0 0 Z " fill="#497B72" transform="translate(191,461)"/>
<path d="M0 0 C4.62 0 9.24 0 14 0 C14 29.7 14 59.4 14 90 C1 89 1 89 0 88 C-0.09516211 85.2611158 -0.12554594 82.54752059 -0.11352539 79.80834961 C-0.11367142 78.94988937 -0.11381744 78.09142914 -0.1139679 77.20695496 C-0.11326847 74.35539262 -0.1054747 71.50389475 -0.09765625 68.65234375 C-0.09579218 66.68079158 -0.09436822 64.70923895 -0.09336853 62.73768616 C-0.08954251 57.53773733 -0.07971152 52.33781625 -0.06866455 47.13787842 C-0.05845222 41.83606339 -0.05387129 36.5342439 -0.04882812 31.23242188 C-0.03808933 20.82160237 -0.02101191 10.41080349 0 0 Z " fill="#26455A" transform="translate(277,130)"/>
<path d="M0 0 C1.65 0 3.3 0 5 0 C5 29.7 5 59.4 5 90 C2.69 90 0.38 90 -2 90 C-2.33 89.34 -2.66 88.68 -3 88 C-1.02 88 0.96 88 3 88 C3.02316094 77.24723136 3.04093427 66.49446864 3.05181217 55.74168015 C3.05703277 50.748839 3.06411553 45.75601492 3.07543945 40.76318359 C3.08629751 35.9456592 3.09228305 31.12815122 3.09487724 26.31061554 C3.09672621 24.47180167 3.10033673 22.63298871 3.10573006 20.79418182 C3.11297917 18.22051546 3.1139893 15.6469171 3.11352539 13.07324219 C3.11712067 12.31151199 3.12071594 11.5497818 3.12442017 10.76496887 C3.18425974 5.7824074 3.18425974 5.7824074 2 1 C1.34 0.67 0.68 0.34 0 0 Z " fill="#283D4F" transform="translate(286,130)"/>
<path d="M0 0 C4.44791418 1.39791589 6.82379495 3.64733912 10 7 C10.33 7 10.66 7 11 7 C11.33 6.01 11.66 5.02 12 4 C13.88391785 7.26545761 14.49287967 10.28111761 15 14 C10.94772191 12.38873705 8.23778153 9.49978002 5.25 6.4375 C4.74339844 5.93025391 4.23679687 5.42300781 3.71484375 4.90039062 C0 1.14048812 0 1.14048812 0 0 Z " fill="#2B3F4F" transform="translate(336,331)"/>
<path d="M0 0 C2.94602056 0.63129012 5.31599818 1.65799909 8 3 C9.051875 3.2475 9.051875 3.2475 10.125 3.5 C12 4 12 4 14 6 C14.33 6.66 14.66 7.32 15 8 C17.02463255 8.65213292 17.02463255 8.65213292 19 9 C18.01 9.495 18.01 9.495 17 10 C14.24072861 8.80735868 11.60623452 7.55780591 8.9375 6.1875 C7.81891602 5.63352539 7.81891602 5.63352539 6.67773438 5.06835938 C1.13116451 2.26232903 1.13116451 2.26232903 0 0 Z " fill="#29404F" transform="translate(168,296)"/>
<path d="M0 0 C1.11623524 2.73985012 1.0708004 3.81414895 0 6.625 C-2.64654468 9.76777181 -5.05098102 10.18039229 -9 11 C-8.60167969 10.54109375 -8.20335937 10.0821875 -7.79296875 9.609375 C-5.08857938 6.47728415 -2.42008229 3.36122541 0 0 Z " fill="#2A4052" transform="translate(301,398)"/>
<path d="M0 0 C4.455 0.99 4.455 0.99 9 2 C9 2.33 9 2.66 9 3 C7.35 3 5.7 3 4 3 C4.515625 3.7425 5.03125 4.485 5.5625 5.25 C7 8 7 8 6.58984375 10.171875 C6.39519531 10.77515625 6.20054687 11.3784375 6 12 C4.99466333 10.37829621 3.99588093 8.75252763 3 7.125 C2.443125 6.22007812 1.88625 5.31515625 1.3125 4.3828125 C0 2 0 2 0 0 Z " fill="#2A3E4D" transform="translate(297,322)"/>
<path d="M0 0 C-0.66 1.32 -1.32 2.64 -2 4 C-2.33 3.34 -2.66 2.68 -3 2 C-4.6396875 3.0209375 -4.6396875 3.0209375 -6.3125 4.0625 C-8.17578125 5.22265625 -8.17578125 5.22265625 -10 6 C-10.99 5.67 -11.98 5.34 -13 5 C-11.40377344 3.96679519 -9.79770894 2.94877571 -8.1875 1.9375 C-7.29417969 1.36902344 -6.40085937 0.80054688 -5.48046875 0.21484375 C-3 -1 -3 -1 0 0 Z " fill="#283F50" transform="translate(294,410)"/>
<path d="M0 0 C0.33 0.66 0.66 1.32 1 2 C-1.3125 4.0625 -1.3125 4.0625 -4 6 C-4.99 5.67 -5.98 5.34 -7 5 C-2.25 1.125 -2.25 1.125 0 0 Z M-9 6 C-8.34 6.33 -7.68 6.66 -7 7 C-7.99 7.99 -8.98 8.98 -10 10 C-10.66 9.67 -11.32 9.34 -12 9 C-11.01 8.01 -10.02 7.02 -9 6 Z " fill="#2B3C4C" transform="translate(175,143)"/>
<path d="M0 0 C1.32 0.33 2.64 0.66 4 1 C1.36 2.98 -1.28 4.96 -4 7 C-4.66 6.67 -5.32 6.34 -6 6 C-5.195625 5.38125 -4.39125 4.7625 -3.5625 4.125 C-0.96125481 2.25835959 -0.96125481 2.25835959 0 0 Z " fill="#263C4E" transform="translate(314,441)"/>
<path d="M0 0 C0.99 0.33 1.98 0.66 3 1 C0.69 3.31 -1.62 5.62 -4 8 C-4.33 7.01 -4.66 6.02 -5 5 C-4.01 4.67 -3.02 4.34 -2 4 C-0.79117904 1.99983534 -0.79117904 1.99983534 0 0 Z " fill="#2A3C4C" transform="translate(325,432)"/>
<path d="M0 0 C5.75 1.75 5.75 1.75 8 4 C5.3333581 5.33332095 3.83319697 4.67102033 1 4 C0.67 2.68 0.34 1.36 0 0 Z " fill="#283F50" transform="translate(162,258)"/>
<path d="M0 0 C3.0831351 1.19899698 6.06279492 2.47700477 9 4 C7 5 7 5 5.0546875 4.44140625 C4.33539063 4.15136719 3.61609375 3.86132812 2.875 3.5625 C2.15054687 3.27503906 1.42609375 2.98757813 0.6796875 2.69140625 C-0.15175781 2.34916016 -0.15175781 2.34916016 -1 2 C-0.67 1.34 -0.34 0.68 0 0 Z " fill="#2D404F" transform="translate(307,315)"/>
<path d="M0 0 C0.99 0.33 1.98 0.66 3 1 C1.68 3.31 0.36 5.62 -1 8 C-2.2077558 4.37673261 -1.54311128 3.35853631 0 0 Z " fill="#293E50" transform="translate(145,177)"/>
</svg>
